<?xml version="1.0" encoding="UTF-8"?>
<svg version="1.1" xmlns="http://www.w3.org/2000/svg" width="328" height="349">
<path d="M0 0 C108.24 0 216.48 0 328 0 C328 115.17 328 230.34 328 349 C219.76 349 111.52 349 0 349 C0 233.83 0 118.66 0 0 Z " fill="#222222" transform="translate(0,0)"/>
<path d="M0 0 C1.83734459 -0.01073296 1.83734459 -0.01073296 3.71180725 -0.02168274 C5.05624364 -0.0245225 6.40068031 -0.02723429 7.74511719 -0.02983093 C9.17154605 -0.03610274 10.5979733 -0.04275017 12.0243988 -0.04974365 C16.69691853 -0.07070789 21.36943828 -0.08114154 26.04199219 -0.09111023 C27.65695207 -0.09516118 29.27191179 -0.0992782 30.88687134 -0.10346031 C38.47944606 -0.12249827 46.07201116 -0.13673004 53.66460514 -0.14507228 C62.39711791 -0.15482806 71.12937608 -0.18110988 79.86179924 -0.22157317 C86.63151183 -0.25185319 93.40115194 -0.26655251 100.17093086 -0.26985329 C104.20452324 -0.27219097 108.23784325 -0.28098199 112.2713623 -0.30631447 C116.07345028 -0.3298084 119.87509065 -0.33374423 123.67723274 -0.32355309 C125.71417742 -0.3228314 127.75110047 -0.34177307 129.78794861 -0.36161804 C144.37494438 -0.28042118 158.30746902 3.48626104 169.32714844 13.43623352 C181.69273942 26.44177997 184.08954832 39.07061918 184.09838867 56.47846985 C184.10602597 57.89726184 184.11445612 59.31604975 184.12361145 60.73483276 C184.14540528 64.56144595 184.1543345 68.38797932 184.15943789 72.21464753 C184.16309868 74.61254631 184.16934743 77.01042472 184.17643929 79.40831566 C184.20087874 87.79401428 184.21397427 96.17965151 184.2175293 104.56538391 C184.22116297 112.34988783 184.25106034 120.13399716 184.29293388 127.91838056 C184.32775346 134.62957137 184.34307972 141.34063206 184.34377533 148.05191249 C184.34456401 152.04801687 184.35311281 156.04371814 184.38177299 160.03972816 C184.40815617 163.80174371 184.41004802 167.56302753 184.39411736 171.32509422 C184.39147 173.34192428 184.41334599 175.35874144 184.43630981 177.3754425 C184.32488964 191.43340465 179.5841335 201.96710925 169.98730469 212.04170227 C158.00587932 223.45139987 144.06924076 225.45078668 128.22290039 225.43769836 C126.76647094 225.44369293 125.31004464 225.45050059 123.85362244 225.45805359 C119.91943933 225.47562877 115.98534339 225.48040543 112.05112481 225.48168516 C109.58605257 225.48311241 107.12100209 225.48739287 104.65593529 225.4926796 C96.0356647 225.51115349 87.41545574 225.51935373 78.79516602 225.51777649 C70.7932034 225.51657657 62.79151115 225.53765625 54.78961688 225.56926382 C47.89244564 225.59552489 40.99536215 225.60613965 34.09814137 225.60486567 C29.99083534 225.60435882 25.88376973 225.60988704 21.77651405 225.63122177 C17.90788532 225.65077032 14.03972223 225.65061701 10.17107582 225.63618851 C8.76272897 225.63411954 7.35435168 225.63868515 5.94605637 225.65090942 C-8.07602652 225.76460133 -20.34225736 223.39226717 -31.20800781 214.14717102 C-31.98917969 213.50006165 -32.77035156 212.85295227 -33.57519531 212.18623352 C-43.40205591 203.28581096 -48.58880442 191.20104745 -49.39840317 178.05576134 C-49.48087377 174.52201252 -49.50111182 170.99316515 -49.49853516 167.45845032 C-49.50453289 166.10862359 -49.51134126 164.75880026 -49.51889038 163.40898132 C-49.53642978 159.77036824 -49.54124058 156.13184944 -49.54252195 152.49319816 C-49.54395085 150.21255582 -49.54823428 147.93193691 -49.55351639 145.65130043 C-49.5719759 137.6740786 -49.58019203 129.69692327 -49.57861328 121.71968079 C-49.57741259 114.3169477 -49.59851107 106.91450648 -49.63010061 99.5118472 C-49.65636061 93.12761733 -49.66697654 86.74348225 -49.66570246 80.35919887 C-49.66519573 76.55877528 -49.67071736 72.75861156 -49.69205856 68.95824242 C-49.71160647 65.38014607 -49.71145444 61.80255317 -49.6970253 58.22443771 C-49.69398069 56.30782339 -49.71049646 54.39120809 -49.72790527 52.47467041 C-49.62299197 37.80519659 -44.98739099 25.22024639 -34.95800781 14.39717102 C-25.05004434 5.13489506 -13.55137996 0.05461736 0 0 Z " fill="#305BF0" transform="translate(104.2080078125,53.85282897949219)"/>
<path d="M0 0 C3.19133251 0.16686706 4.79703332 0.58257599 7.75 2 C9.625 4.5 9.625 4.5 9.46533203 7.86938477 C8.56063838 13.7503918 6.76130061 19.40187291 5.0546875 25.08984375 C4.6953714 26.30660294 4.3360553 27.52336212 3.96585083 28.7769928 C3.00955764 32.01223403 2.04813172 35.24585081 1.08380127 38.47869873 C-0.62161625 44.20080688 -2.31387045 49.92683073 -4.0078125 55.65234375 C-4.56094116 57.5191983 -4.56094116 57.5191983 -5.12524414 59.42376709 C-8.14512016 69.64628423 -11.04137147 79.90045492 -13.88720703 90.17260742 C-19.89210122 111.8053362 -19.89210122 111.8053362 -23.375 114.5 C-26.22824437 115.92662219 -28.20954549 115.81033868 -31.375 115.5 C-34.3125 114 -34.3125 114 -36.375 111.5 C-36.04766043 104.77811991 -34.07815349 98.59392563 -32.125 92.1875 C-29.9860379 85.02589793 -27.90098006 77.86965444 -26.0625 70.625 C-23.36454925 60.08090837 -20.21576512 49.66674168 -17.11376953 39.23632812 C-14.32754991 29.84942309 -11.65202439 20.44394748 -9.26391602 10.94604492 C-6.39042274 -0.08724127 -6.39042274 -0.08724127 0 0 Z " fill="#FAFBFE" transform="translate(186.375,108.5)"/>
<path d="M0 0 C0 0.66 0 1.32 0 2 C0.5865889 2.26258102 1.1731778 2.52516205 1.77754211 2.79570007 C4.11238309 4.06089787 5.67343162 5.40718584 7.55932617 7.26879883 C8.23650192 7.93321487 8.91367767 8.59763092 9.6113739 9.28218079 C10.3313002 9.99988144 11.0512265 10.71758209 11.79296875 11.45703125 C12.53960281 12.19700851 13.28623688 12.93698578 14.05549622 13.6993866 C15.6306978 15.26447191 17.20320251 16.83227556 18.77319336 18.40258789 C21.17855669 20.80357297 23.59944791 23.18811576 26.02148438 25.57226562 C27.55045809 27.09537211 29.07848537 28.61942937 30.60546875 30.14453125 C31.33146774 30.85615921 32.05746674 31.56778717 32.8054657 32.30097961 C33.47318497 32.97485214 34.14090424 33.64872467 34.82885742 34.34301758 C35.41857834 34.92988846 36.00829926 35.51675934 36.6158905 36.12141418 C38.33658227 38.45682706 38.82371471 40.11015491 39 43 C37.08725695 45.46329063 35.27126907 47.45111381 33.03515625 49.5859375 C32.09596596 50.51595078 32.09596596 50.51595078 31.13780212 51.4647522 C29.12631928 53.44926804 27.09475965 55.41178955 25.0625 57.375 C23.72720121 58.68876955 22.39320101 60.00386035 21.06054688 61.3203125 C15.35305297 66.93602895 9.63387626 72.52071942 3.51342773 77.68994141 C1.94051005 79.00519091 1.94051005 79.00519091 0.44165039 80.66552734 C-1 82 -1 82 -3.3125 82.125 C-7.20526568 80.49547018 -10.03410862 77.75440909 -12 74 C-11.86174643 69.63838396 -9.96698496 67.55239756 -6.89694214 64.59765625 C-6.33024811 64.07042969 -5.76355408 63.54320312 -5.1796875 63 C-3.99326448 61.85439974 -2.80707349 60.70855916 -1.62109375 59.5625 C0.25512076 57.77347109 2.13597439 55.98964989 4.02197266 54.2109375 C5.84252662 52.48675184 7.64443252 50.74469003 9.4453125 49 C10.01605499 48.47277344 10.58679749 47.94554687 11.17483521 47.40234375 C14.20631107 44.46154211 14.20631107 44.46154211 15.19726562 40.48632812 C13.55134456 37.06828977 11.13919853 34.76096683 8.3984375 32.21875 C7.25758787 31.11872251 6.11696976 30.01845485 4.9765625 28.91796875 C3.17276914 27.20136037 1.36434478 25.48997509 -0.44921875 23.78369141 C-2.20028163 22.12901295 -3.93266616 20.45645977 -5.6640625 18.78125 C-6.21293121 18.27589722 -6.76179993 17.77054443 -7.32730103 17.24987793 C-8.83447266 15.78320312 -8.83447266 15.78320312 -11 13 C-10.89191443 8.87387044 -9.33004117 6.71783093 -6.625 3.6875 C-6.01914063 2.99011719 -5.41328125 2.29273438 -4.7890625 1.57421875 C-3 0 -3 0 0 0 Z " fill="#FAFAFE" transform="translate(209,126)"/>
<path d="M0 0 C2.50278065 1.10687735 3.87155758 2.58911766 5.6759491 4.6366272 C6.30114441 5.32369751 6.92633972 6.01076782 7.57048035 6.71865845 C8.8634491 8.8241272 8.8634491 8.8241272 8.60725403 10.77639771 C7.34244023 14.25848878 4.4606348 16.48373833 1.8243866 18.9803772 C0.5923692 20.17934264 -0.63939404 21.37856929 -1.8709259 22.57803345 C-3.82009487 24.45871543 -5.77309305 26.33515719 -7.73127747 28.20645142 C-9.61927274 30.01621484 -11.49177522 31.84091845 -13.3631134 33.6678772 C-13.95572968 34.22527588 -14.54834595 34.78267456 -15.15892029 35.35696411 C-16.98764784 37.09361889 -16.98764784 37.09361889 -19.1365509 39.8241272 C-18.6841261 44.18286202 -15.85108813 46.44294285 -12.8240509 49.3241272 C-12.29513245 49.84168579 -11.76621399 50.35924438 -11.2212677 50.89248657 C-9.5333847 52.54376848 -7.83625648 54.18502233 -6.1365509 55.8241272 C-3.89875137 57.98214101 -1.67104507 60.14985598 0.5509491 62.3241272 C1.06762146 62.81590454 1.58429382 63.30768188 2.11662292 63.81436157 C6.68679657 68.28962869 6.68679657 68.28962869 6.8634491 71.8241272 C5.6056366 73.92959595 5.6056366 73.92959595 3.7384491 76.0116272 C3.13774597 76.70643188 2.53704285 77.40123657 1.9181366 78.11709595 C-0.54118119 80.16029343 -1.96285858 80.58260628 -5.1365509 80.8241272 C-7.09779358 79.61132812 -7.09779358 79.61132812 -8.99299622 77.71231079 C-9.71013794 77.00762665 -10.42727966 76.3029425 -11.16615295 75.5769043 C-11.92466553 74.79997223 -12.6831781 74.02304016 -13.4646759 73.2225647 C-14.64909271 72.0396434 -14.64909271 72.0396434 -15.85743713 70.83282471 C-17.52540347 69.16017388 -19.18597804 67.48012446 -20.8396759 65.79336548 C-23.37316214 63.21276495 -25.93215103 60.65975664 -28.4959259 58.10928345 C-30.112099 56.48195452 -31.72673502 54.85309732 -33.3396759 53.2225647 C-34.1062854 52.45777802 -34.8728949 51.69299133 -35.66273499 50.9050293 C-36.36726807 50.18143219 -37.07180115 49.45783508 -37.79768372 48.71231079 C-38.41991821 48.08086151 -39.04215271 47.44941223 -39.6832428 46.79882812 C-41.46974678 44.37139305 -42.04932857 42.84311198 -42.1365509 39.8241272 C-40.76516724 37.6975708 -40.76516724 37.6975708 -38.64167786 35.5687561 C-37.85368301 34.76507599 -37.06568817 33.96139587 -36.2538147 33.13336182 C-35.38625046 32.28108002 -34.51868622 31.42879822 -33.62483215 30.5506897 C-32.7450621 29.66755096 -31.86529205 28.78441223 -30.9588623 27.87451172 C-29.09337636 26.00932509 -27.22308835 24.15124746 -25.34187317 22.30215454 C-22.92969159 19.92978399 -20.54289418 17.53364742 -18.16294575 15.12899208 C-15.89187111 12.8403397 -13.60144165 10.5712822 -11.31233215 8.3006897 C-10.02616753 7.00404892 -10.02616753 7.00404892 -8.71401978 5.68121338 C-7.91026413 4.89644623 -7.10650848 4.11167908 -6.27839661 3.3031311 C-5.57366714 2.60539581 -4.86893768 1.90766052 -4.14285278 1.18878174 C-2.1365509 -0.1758728 -2.1365509 -0.1758728 0 0 Z " fill="#FCFDFE" transform="translate(141.1365509033203,125.17587280273438)"/>
<path d="M0 0 C1.64766044 0.0056028 3.29532592 0.00986966 4.94299316 0.01286316 C9.2568569 0.02425819 13.57041241 0.05367863 17.88415527 0.0869751 C22.29512362 0.11779187 26.70614229 0.13139319 31.1171875 0.14648438 C39.75534899 0.17855409 48.39326103 0.22968485 57.03125 0.29296875 C57.03125 0.62296875 57.03125 0.95296875 57.03125 1.29296875 C52.19820763 1.46891994 47.36489911 1.63471263 42.53125 1.79296875 C41.79883087 1.81697754 41.06641174 1.84098633 40.3117981 1.86572266 C27.68460955 2.26941371 15.07413635 2.37527016 2.44140625 2.25585938 C-3.81234771 2.21395278 -9.7860862 2.35196879 -15.96875 3.29296875 C-16.95875 3.29296875 -17.94875 3.29296875 -18.96875 3.29296875 C-19.29875 3.95296875 -19.62875 4.61296875 -19.96875 5.29296875 C-21.61866582 6.00007553 -23.2895262 6.65859531 -24.96875 7.29296875 C-32.29332424 10.38556676 -38.18011271 15.28398975 -41.96875 22.29296875 C-42.95875 23.19015625 -42.95875 23.19015625 -43.96875 24.10546875 C-48.60640678 29.17790586 -49.3189887 35.6870622 -49.96875 42.29296875 C-50.13886534 43.08190427 -50.30898067 43.87083979 -50.48425102 44.68368244 C-51.00098151 47.46655268 -51.09462102 50.02449379 -51.09573364 52.85404968 C-51.09855347 53.96028687 -51.10137329 55.06652405 -51.10427856 56.20628357 C-51.10225433 57.41011185 -51.1002301 58.61394012 -51.09814453 59.85424805 C-51.09989685 61.12948334 -51.10164917 62.40471863 -51.10345459 63.71859741 C-51.10800541 67.20800346 -51.1062494 70.69737987 -51.1030755 74.18678641 C-51.1005414 77.83870253 -51.10289222 81.49061613 -51.10446167 85.14253235 C-51.1062796 91.27153987 -51.1038862 97.40053533 -51.09912109 103.52954102 C-51.09367191 110.62042412 -51.0954474 117.7112785 -51.1009475 124.80216092 C-51.10548067 130.88971856 -51.1061284 136.97726753 -51.10350883 143.06482631 C-51.10194812 146.70111202 -51.10174683 150.33738421 -51.10504532 153.97366905 C-51.10846171 158.02242114 -51.10373101 162.07112339 -51.09814453 166.11987305 C-51.10016876 167.32977402 -51.10219299 168.53967499 -51.10427856 169.78623962 C-51.10004883 171.43290619 -51.10004883 171.43290619 -51.09573364 173.11283875 C-51.09535662 174.07054011 -51.09497959 175.02824148 -51.09459114 176.0149641 C-51.11824525 178.32497676 -51.11824525 178.32497676 -49.96875 180.29296875 C-49.89878986 181.9999961 -49.88434846 183.70964878 -49.90625 185.41796875 C-49.91527344 186.32804688 -49.92429687 187.238125 -49.93359375 188.17578125 C-49.94519531 188.87445313 -49.95679688 189.573125 -49.96875 190.29296875 C-49.30875 190.62296875 -48.64875 190.95296875 -47.96875 191.29296875 C-45.96875 194.29296875 -45.96875 194.29296875 -46.34375 196.48046875 C-46.55 197.07859375 -46.75625 197.67671875 -46.96875 198.29296875 C-46.30875 198.29296875 -45.64875 198.29296875 -44.96875 198.29296875 C-44.72125 199.26234375 -44.47375 200.23171875 -44.21875 201.23046875 C-43.6 202.74640625 -43.6 202.74640625 -42.96875 204.29296875 C-40.95366642 205.02620671 -40.95366642 205.02620671 -38.96875 205.29296875 C-38.63875 206.28296875 -38.30875 207.27296875 -37.96875 208.29296875 C-31.20429744 214.44247107 -22.32296925 220.29296875 -12.96875 220.29296875 C-12.96875 220.95296875 -12.96875 221.61296875 -12.96875 222.29296875 C-12.11796875 222.11894531 -11.2671875 221.94492187 -10.390625 221.765625 C-6.8309459 221.27393417 -3.7930728 221.4087797 -0.21875 221.73046875 C6.43848479 222.24964106 13.0129857 222.36795027 19.68847656 222.25561523 C24.5674264 222.19858711 29.19979349 222.59575744 34.03125 223.29296875 C34.03125 223.62296875 34.03125 223.95296875 34.03125 224.29296875 C27.73663469 224.39552062 21.44223959 224.46490977 15.14697266 224.51269531 C13.01147411 224.53264422 10.87602898 224.55981333 8.74072266 224.59472656 C-8.00529239 224.86140783 -22.58380135 224.68151828 -35.96875 213.29296875 C-36.74992187 212.64585937 -37.53109375 211.99875 -38.3359375 211.33203125 C-48.1627981 202.43160869 -53.3495466 190.34684518 -54.15914536 177.20155907 C-54.24161596 173.66781025 -54.26185401 170.13896288 -54.25927734 166.60424805 C-54.26527508 165.25442132 -54.27208345 163.90459799 -54.27963257 162.55477905 C-54.29717196 158.91616597 -54.30198277 155.27764717 -54.30326414 151.63899589 C-54.30469303 149.35835355 -54.30897647 147.07773464 -54.31425858 144.79709816 C-54.33271808 136.81987633 -54.34093421 128.842721 -54.33935547 120.86547852 C-54.33815478 113.46274543 -54.35925325 106.06030421 -54.3908428 98.65764493 C-54.4171028 92.27341506 -54.42771873 85.88927998 -54.42644465 79.5049966 C-54.42593792 75.70457301 -54.43145954 71.90440929 -54.45280075 68.10404015 C-54.47234866 64.5259438 -54.47219662 60.9483509 -54.45776749 57.37023544 C-54.45472288 55.45362112 -54.47123864 53.53700582 -54.48864746 51.62046814 C-54.38373416 36.95099432 -49.74813318 24.36604412 -39.71875 13.54296875 C-27.56429816 2.18060478 -15.9248832 -0.1594945 0 0 Z " fill="#057EF1" transform="translate(108.96875,54.70703125)"/>
<path d="M0 0 C12.96360016 0.8363613 23.84407946 6.19815555 32.75 15.75 C42.79082536 28.04585706 44.29855242 39.88527521 44.30639648 55.33129883 C44.31403379 56.75009082 44.32246393 58.16887873 44.33161926 59.58766174 C44.35341309 63.41427493 44.36234231 67.2408083 44.36744571 71.06747651 C44.37110649 73.46537529 44.37735525 75.8632537 44.3844471 78.26114464 C44.40888655 86.64684326 44.42198208 95.03248049 44.42553711 103.41821289 C44.42917079 111.20271681 44.45906815 118.98682614 44.50094169 126.77120954 C44.53576127 133.48240035 44.55108753 140.19346104 44.55178314 146.90474147 C44.55257182 150.90084585 44.56112062 154.89654712 44.58978081 158.89255714 C44.61616398 162.65457269 44.61805583 166.41585651 44.60212517 170.1779232 C44.59947781 172.19475326 44.6213538 174.21157042 44.64431763 176.22827148 C44.53289745 190.28623363 39.79214131 200.81993823 30.1953125 210.89453125 C21.82229902 218.86800259 10.98679224 223.71976168 -0.5625 224.125 C-1.366875 224.08375 -2.17125 224.0425 -3 224 C-3 223.34 -3 222.68 -3 222 C-0.36 222 2.28 222 5 222 C5.495 221.01 5.495 221.01 6 220 C7.92578125 219.40234375 7.92578125 219.40234375 10.3125 218.9375 C11.09238281 218.78152344 11.87226563 218.62554687 12.67578125 218.46484375 C14.18939362 218.16212128 15.70781111 217.88223808 17.23046875 217.62890625 C17.81441406 217.42136719 18.39835937 217.21382812 19 217 C19.33 216.01 19.66 215.02 20 214 C20.99 213.67 21.98 213.34 23 213 C23.99 212.01 23.99 212.01 25 211 C25.66 211 26.32 211 27 211 C27.495 210.34 27.99 209.68 28.5 209 C29.2425 208.01 29.2425 208.01 30 207 C30.66 207 31.32 207 32 207 C32.103125 206.21625 32.20625 205.4325 32.3125 204.625 C33 202 33 202 36 200 C37.2188121 196.44327821 37.2188121 196.44327821 38 193 C38.66 193 39.32 193 40 193 C40.144375 191.824375 40.28875 190.64875 40.4375 189.4375 C40.73820007 186.98894229 41.0760929 184.57460594 41.51069641 182.14497375 C42.30608131 176.54221085 42.14740803 170.8937898 42.14526367 165.24682617 C42.14862228 163.9743956 42.1519809 162.70196503 42.15544128 161.39097595 C42.16423818 157.9156184 42.16661758 154.44028551 42.16725707 150.9649179 C42.16797005 148.7890159 42.17010904 146.61312008 42.17275429 144.43721962 C42.18199359 136.83306102 42.18609097 129.22891989 42.18530273 121.62475586 C42.18470239 114.55782565 42.19524938 107.49097188 42.2110464 100.424061 C42.22415989 94.33888461 42.22948503 88.25373308 42.22884732 82.16854268 C42.22859345 78.54206958 42.23138332 74.91566447 42.24202538 71.28920555 C42.25358504 67.23987043 42.24893631 63.1907046 42.24291992 59.14135742 C42.24853943 57.95401001 42.25415894 56.7666626 42.25994873 55.54333496 C42.22472328 46.18541727 40.84915631 37.85334983 37.71484375 29.04296875 C37.08467312 27.24198931 36.56454028 25.40331436 36.0625 23.5625 C35.2414382 20.86833021 35.2414382 20.86833021 32.9375 19.75 C32.298125 19.5025 31.65875 19.255 31 19 C30.505 18.01 30.505 18.01 30 17 C29.34 17 28.68 17 28 17 C27.92652344 16.40703125 27.85304688 15.8140625 27.77734375 15.203125 C26.72252424 12.21358628 25.21196244 11.4286994 22.5625 9.75 C21.35787109 8.96882813 21.35787109 8.96882813 20.12890625 8.171875 C18.11300631 6.83925758 18.11300631 6.83925758 16 7 C16 6.34 16 5.68 16 5 C15.38125 5.20625 14.7625 5.4125 14.125 5.625 C13.42375 5.74875 12.7225 5.8725 12 6 C11.34 5.34 10.68 4.68 10 4 C8.865625 4.04125 7.73125 4.0825 6.5625 4.125 C3 4 3 4 1.0625 2 C0.711875 1.34 0.36125 0.68 0 0 Z " fill="#8437F4" transform="translate(244,55)"/>
<path d="M0 0 C5.11374857 2.77603494 8.77171925 6.15757888 12 11 C12.48240524 14.69844014 12.38318803 16.41812189 10.3125 19.5625 C7.9164233 22.08809436 5.49435999 24.57128106 3 27 C2.34 27.66 1.68 28.32 1 29 C0.154375 29.598125 -0.69125 30.19625 -1.5625 30.8125 C-4.28527213 33.25601345 -4.70258453 34.43101431 -5 38 C-5.66 37.34 -6.32 36.68 -7 36 C-9.31 38.64 -11.62 41.28 -14 44 C-12.59832263 48.37397344 -10.55233891 50.75773906 -7.24609375 53.90625 C-6.30958984 54.81503906 -5.37308594 55.72382813 -4.40820312 56.66015625 C-2.92106482 58.08507428 -1.43069533 59.50646682 0.06225586 60.92529297 C1.50950953 62.30605829 2.94438403 63.69976217 4.37890625 65.09375 C5.2407251 65.91552734 6.10254395 66.73730469 6.99047852 67.58398438 C9.13163755 70.15826573 9.68311846 71.70882806 10 75 C9.45706299 74.29045166 8.91412598 73.58090332 8.35473633 72.84985352 C5.85562251 69.82526506 3.15063654 67.11265234 0.32421875 64.40234375 C-0.76165177 63.34369771 -1.84692123 62.28443486 -2.93164062 61.22460938 C-4.6291155 59.57057722 -6.32997545 57.92075506 -8.04125977 56.28100586 C-9.70169905 54.68691779 -11.34597508 53.07757898 -12.98828125 51.46484375 C-13.50586502 50.97620346 -14.02344879 50.48756317 -14.55671692 49.9841156 C-15.97387695 48.57788086 -15.97387695 48.57788086 -18 46 C-17.50650918 41.34879442 -14.19492818 38.9243955 -10.9609375 35.87890625 C-9.72876536 34.68465871 -8.49700693 33.48998419 -7.265625 32.29492188 C-5.31775703 30.42164996 -3.36548519 28.5534699 -1.40527344 26.69311523 C0.48514245 24.89313738 2.35660514 23.07509484 4.2265625 21.25390625 C5.11548691 20.42555016 5.11548691 20.42555016 6.02236938 19.58045959 C7.8672922 17.83822235 7.8672922 17.83822235 10 15 C9.91901708 11.24140092 8.81948837 9.25032511 6.1875 6.625 C5.68605469 6.10164062 5.18460938 5.57828125 4.66796875 5.0390625 C3.03105071 3.77451927 3.03105071 3.77451927 0.94140625 4.26953125 C-1.12455216 5.04686369 -3.05485437 5.9579577 -5 7 C-3.35 4.69 -1.7 2.38 0 0 Z " fill="#0D57EE" transform="translate(139,122)"/>
<path d="M0 0 C0.33 0 0.66 0 1 0 C0.61743476 11.47695706 -4.66646287 20.54092841 -12.51171875 28.7421875 C-22.5182922 37.82193547 -32.74927119 41.2817362 -46 42 C-46 41.34 -46 40.68 -46 40 C-43.36 40 -40.72 40 -38 40 C-37.67 39.34 -37.34 38.68 -37 38 C-35.07421875 37.40234375 -35.07421875 37.40234375 -32.6875 36.9375 C-31.90761719 36.78152344 -31.12773437 36.62554687 -30.32421875 36.46484375 C-28.81060638 36.16212128 -27.29218889 35.88223808 -25.76953125 35.62890625 C-25.18558594 35.42136719 -24.60164063 35.21382813 -24 35 C-23.67 34.01 -23.34 33.02 -23 32 C-22.01 31.67 -21.02 31.34 -20 31 C-19.34 30.34 -18.68 29.68 -18 29 C-17.34 29 -16.68 29 -16 29 C-15.505 28.34 -15.01 27.68 -14.5 27 C-13.7575 26.01 -13.7575 26.01 -13 25 C-12.34 25 -11.68 25 -11 25 C-10.896875 24.21625 -10.79375 23.4325 -10.6875 22.625 C-10 20 -10 20 -7 18 C-5.7811879 14.44327821 -5.7811879 14.44327821 -5 11 C-4.34 11 -3.68 11 -3 11 C-2.814375 9.1128125 -2.814375 9.1128125 -2.625 7.1875 C-2.30131941 3.89674737 -1.93395001 2.90092502 0 0 Z " fill="#743AED" transform="translate(287,237)"/>
<path d="M0 0 C12.96360016 0.8363613 23.84407946 6.19815555 32.75 15.75 C38.70609686 23.04375454 43.46117678 31.43180576 44 41 C43.72057545 42.67654729 43.39985827 44.3480308 43 46 C40.56189385 43.56189385 40.78891484 42.89851462 40.6875 39.5625 C40.2791974 34.16819443 38.46521762 30.04961247 36.05859375 25.25 C35 23 35 23 35 21 C34.360625 20.71125 33.72125 20.4225 33.0625 20.125 C31 19 31 19 30 17 C29.34 17 28.68 17 28 17 C27.92652344 16.40703125 27.85304688 15.8140625 27.77734375 15.203125 C26.72252424 12.21358628 25.21196244 11.4286994 22.5625 9.75 C21.35787109 8.96882813 21.35787109 8.96882813 20.12890625 8.171875 C18.11300631 6.83925758 18.11300631 6.83925758 16 7 C16 6.34 16 5.68 16 5 C15.071875 5.309375 15.071875 5.309375 14.125 5.625 C13.42375 5.74875 12.7225 5.8725 12 6 C11.34 5.34 10.68 4.68 10 4 C8.865625 4.04125 7.73125 4.0825 6.5625 4.125 C3 4 3 4 1.0625 2 C0.711875 1.34 0.36125 0.68 0 0 Z " fill="#763AEA" transform="translate(244,55)"/>
<path d="M0 0 C0.66 0 1.32 0 2 0 C1 4 1 4 0.27830505 5.90368652 C-0.23578112 8.06825126 -0.23578112 8.06825126 1.17884827 9.88244629 C1.77475266 10.51227417 2.37065704 11.14210205 2.98461914 11.79101562 C3.63552521 12.48815674 4.28643127 13.18529785 4.95706177 13.90356445 C5.63123138 14.59538818 6.305401 15.28721191 7 16 C7.59207245 16.61512451 8.1841449 17.23024902 8.79415894 17.86401367 C10.59411148 19.70877013 12.41601171 21.52890068 14.24609375 23.34375 C15.23005882 24.32559265 15.23005882 24.32559265 16.23390198 25.32727051 C18.29940145 27.38723823 20.36837595 29.44367366 22.4375 31.5 C23.85114434 32.9086205 25.26455786 34.31747267 26.67773438 35.7265625 C30.11583149 39.15372133 33.55704656 42.57772019 37 46 C34 46 34 46 32.08642578 44.42700195 C31.3798584 43.70472412 30.67329102 42.98244629 29.9453125 42.23828125 C29.16542969 41.44873047 28.38554687 40.65917969 27.58203125 39.84570312 C26.77121094 39.00974609 25.96039063 38.17378906 25.125 37.3125 C24.32191406 36.49587891 23.51882812 35.67925781 22.69140625 34.83789062 C21.1384034 33.25802364 19.58831958 31.67528069 18.04150391 30.08935547 C16.4025012 28.41193558 14.75511041 26.7450304 13.09375 25.08984375 C11.49903629 23.49810526 9.93075436 21.8798379 8.375 20.25 C6.13466888 17.80995326 6.13466888 17.80995326 3 17 C2.3125 14.9375 2.3125 14.9375 2 13 C1.34 13 0.68 13 0 13 C-1.75 10.9375 -1.75 10.9375 -3 8 C-1.75 1.75 -1.75 1.75 0 0 Z " fill="#0A59EF" transform="translate(100,160)"/>
<path d="M0 0 C3.92300272 1.82504909 6.73787272 4.18270826 10 7 C8.77847367 13.51480708 5.73569042 17.42067671 1 22 C0.34 22.33 -0.32 22.66 -1 23 C-1.29390625 23.62261719 -1.5878125 24.24523437 -1.890625 24.88671875 C-3.19056048 27.36300429 -4.44527044 28.26261404 -6.75 29.8125 C-10.34048414 32.3622641 -12.9414949 35.06910939 -15.578125 38.58203125 C-17.31217517 40.31131755 -18.64520787 40.49312408 -21 41 C-17.42339229 36.61024899 -13.64171393 32.61374753 -9.56640625 28.6796875 C-9.08126556 28.20952209 -8.59612488 27.73935669 -8.09628296 27.25494385 C-6.07034715 25.29200402 -4.04399924 23.3303365 -1.99438477 21.39208984 C-0.4837018 19.9599178 1.00725928 18.5095139 2.49609375 17.0546875 C3.38482178 16.20374512 4.2735498 15.35280273 5.18920898 14.47607422 C7.28968577 12.14838976 7.28968577 12.14838976 6.86962891 9.31030273 C5.9059152 6.75004928 4.78613499 5.19346563 2.9375 3.1875 C2.38964844 2.58292969 1.84179688 1.97835937 1.27734375 1.35546875 C0.64505859 0.68451172 0.64505859 0.68451172 0 0 Z " fill="#4639EC" transform="translate(240,157)"/>
<path d="M0 0 C15.51 0 31.02 0 47 0 C44 3 44 3 41.02905273 3.35644531 C39.84255127 3.34709961 38.6560498 3.33775391 37.43359375 3.328125 C36.14388672 3.32296875 34.85417969 3.3178125 33.52539062 3.3125 C32.85483643 3.3021875 32.18428223 3.291875 31.4934082 3.28125 C29.44138415 3.25005904 27.39012839 3.24027435 25.33789062 3.234375 C15.30819459 3.15409729 15.30819459 3.15409729 13 2 C10.795636 1.77049681 8.58607827 1.58924067 6.375 1.4375 C5.18648437 1.35371094 3.99796875 1.26992188 2.7734375 1.18359375 C1.40058594 1.09271484 1.40058594 1.09271484 0 1 C0 0.67 0 0.34 0 0 Z " fill="#4C4DE8" transform="translate(198,54)"/>
<path d="M0 0 C4.10920249 -0.07471277 8.04294489 -0.01577632 12.125 0.46875 C17.26306395 1.06602675 22.39679436 1.33131288 27.5625 1.5625 C28.47580078 1.60568359 29.38910156 1.64886719 30.33007812 1.69335938 C32.55327991 1.79811757 34.77656707 1.90029017 37 2 C37 2.33 37 2.66 37 3 C24.46 3 11.92 3 -1 3 C-0.67 2.01 -0.34 1.02 0 0 Z " fill="#5451F6" transform="translate(204,276)"/>
<path d="M0 0 C-3.79039366 2.12999997 -6.65736138 2.16702456 -11 2 C-11.33 2.66 -11.66 3.32 -12 4 C-13.65204456 4.70211894 -15.31923769 5.36971413 -17 6 C-17.33 6.33 -17.66 6.66 -18 7 C-19.99958364 7.04080783 -22.00045254 7.04254356 -24 7 C-16.86392911 0.33966717 -9.43816425 -1.82674147 0 0 Z " fill="#0280EA" transform="translate(101,56)"/>
<path d="M0 0 C3.71256479 -0.2062536 5.73909781 0.31695371 9 2 C10.32 2 11.64 2 13 2 C13 2.66 13 3.32 13 4 C13.928125 3.773125 14.85625 3.54625 15.8125 3.3125 C19 3 19 3 20.875 4.4375 C21.431875 5.2109375 21.431875 5.2109375 22 6 C14.17509977 6.62599202 7.39062767 4.32514129 0 2 C0 1.34 0 0.68 0 0 Z " fill="#0678E6" transform="translate(83,273)"/>
<path d="M0 0 C0.33 0 0.66 0 1 0 C0.72876813 8.13695602 -2.08916501 13.93179365 -6 21 C-7.31223496 17.06329512 -6.24296256 14.87511856 -5 11 C-4.34 11 -3.68 11 -3 11 C-2.814375 9.1128125 -2.814375 9.1128125 -2.625 7.1875 C-2.30131941 3.89674737 -1.93395001 2.90092502 0 0 Z " fill="#7934E9" transform="translate(287,237)"/>
<path d="M0 0 C5.11374857 2.77603494 8.77171925 6.15757888 12 11 C12.125 13.6875 12.125 13.6875 12 16 C11.01 16 10.02 16 9 16 C9.23589844 15.42765625 9.47179687 14.8553125 9.71484375 14.265625 C10.2653956 11.89019298 10.2653956 11.89019298 8.56640625 9.859375 C7.90511719 9.16328125 7.24382812 8.4671875 6.5625 7.75 C5.90378906 7.04359375 5.24507812 6.3371875 4.56640625 5.609375 C4.04949219 5.07828125 3.53257812 4.5471875 3 4 C0.08014819 4.68088981 -2.35122304 5.58101234 -5 7 C-3.35 4.69 -1.7 2.38 0 0 Z " fill="#0D56EE" transform="translate(139,122)"/>
<path d="M0 0 C1.49828872 3.88235819 0.43110582 6.43449288 -0.9375 10.25 C-1.31777344 11.32765625 -1.69804687 12.4053125 -2.08984375 13.515625 C-2.39019531 14.33546875 -2.69054687 15.1553125 -3 16 C-3.33 16 -3.66 16 -4 16 C-4.46450943 9.49686791 -3.32575612 5.5825192 0 0 Z " fill="#1A57ED" transform="translate(155,194)"/>
<path d="M0 0 C0 4.09036452 -2.11143417 5.77890652 -4.75 8.625 C-5.63171875 9.60726562 -6.5134375 10.58953125 -7.421875 11.6015625 C-9.80142246 13.81526272 -10.83982991 14.68988985 -14 15 C-9.59156563 9.70987876 -4.92440206 4.81191572 0 0 Z " fill="#3534EB" transform="translate(233,183)"/>
<path d="M0 0 C5.27315333 0.4452885 10.01770224 1.08373163 15 3 C14.01 3.495 14.01 3.495 13 4 C12.67 4.66 12.34 5.32 12 6 C11.34 5.34 10.68 4.68 10 4 C8.865625 4.04125 7.73125 4.0825 6.5625 4.125 C3 4 3 4 1.0625 2 C0.711875 1.34 0.36125 0.68 0 0 Z " fill="#6640E8" transform="translate(244,55)"/>
<path d="M0 0 C0.99 0.33 1.98 0.66 3 1 C-3.15034169 8.48291572 -3.15034169 8.48291572 -7 11 C-6.52354792 6.71193127 -5.34097516 4.73352513 -2 2 C-1.34 2 -0.68 2 0 2 C0 1.34 0 0.68 0 0 Z " fill="#2375F2" transform="translate(109,151)"/>
<path d="M0 0 C0.66 0.33 1.32 0.66 2 1 C0.52278578 4.45201639 -1.43794001 6.64961936 -4.125 9.25 C-4.84945312 9.95640625 -5.57390625 10.6628125 -6.3203125 11.390625 C-6.87460938 11.92171875 -7.42890625 12.4528125 -8 13 C-8.33 12.01 -8.66 11.02 -9 10 C-8.0409375 9.5978125 -8.0409375 9.5978125 -7.0625 9.1875 C-4.66868314 8.11332248 -4.66868314 8.11332248 -4 5 C-3.34 5 -2.68 5 -2 5 C-1.34 3.35 -0.68 1.7 0 0 Z " fill="#1F6DF0" transform="translate(121,139)"/>
<path d="M0 0 C0.66 0.66 1.32 1.32 2 2 C-4.07439825 8.86214442 -4.07439825 8.86214442 -7.9375 9.4375 C-8.9584375 9.2209375 -8.9584375 9.2209375 -10 9 C-9.278125 8.443125 -8.55625 7.88625 -7.8125 7.3125 C-5.02542701 5.02090666 -2.51358472 2.58540143 0 0 Z " fill="#4750ED" transform="translate(215,200)"/>
<path d="M0 0 C0.33 0.66 0.66 1.32 1 2 C0.34 1.67 -0.32 1.34 -1 1 C-0.67 0.67 -0.34 0.34 0 0 Z M-4 4 C-4 7.10551666 -4.5393715 8.35261084 -6 11 C-6.99 10.67 -7.98 10.34 -9 10 C-8.75 8.125 -8.75 8.125 -8 6 C-5.9375 4.75 -5.9375 4.75 -4 4 Z " fill="#1767EF" transform="translate(130,158)"/>
<path d="M0 0 C1.18414294 3.55242882 0.69535532 4.69830562 -0.4375 8.1875 C-0.72496094 9.08855469 -1.01242188 9.98960937 -1.30859375 10.91796875 C-1.53675781 11.60503906 -1.76492187 12.29210937 -2 13 C-2.33 13 -2.66 13 -3 13 C-3.4726477 4.80743982 -3.4726477 4.80743982 -1.5 1.4375 C-0.7575 0.7259375 -0.7575 0.7259375 0 0 Z " fill="#154EEC" transform="translate(165,159)"/>
<path d="M0 0 C3.94139078 1.66751148 6.7892812 4.22710649 10 7 C9.67 8.65 9.34 10.3 9 12 C8.34 11.01 7.68 10.02 7 9 C5.18280646 6.88679303 3.32242167 4.81641272 1.4609375 2.7421875 C0 1 0 1 0 0 Z " fill="#422EEA" transform="translate(240,157)"/>
<path d="M0 0 C0.33 0.99 0.66 1.98 1 3 C-3.75 7.875 -3.75 7.875 -6 9 C-5.52797514 4.75177626 -3.03344482 2.80010291 0 0 Z " fill="#1B5BED" transform="translate(147,198)"/>
<path d="M0 0 C0.33 0 0.66 0 1 0 C0.67 2.97 0.34 5.94 0 9 C-0.99 8.67 -1.98 8.34 -3 8 C-1.125 1.125 -1.125 1.125 0 0 Z " fill="#7233D8" transform="translate(287,237)"/>
<path d="M0 0 C0.66 0 1.32 0 2 0 C1.7834375 0.8353125 1.7834375 0.8353125 1.5625 1.6875 C0.97230872 4.11384195 0.476571 6.54906345 0 9 C-0.99 8.67 -1.98 8.34 -3 8 C-1.125 1.125 -1.125 1.125 0 0 Z " fill="#126CF0" transform="translate(100,160)"/>
<path d="M0 0 C3.87132028 0.57352893 6.08172796 2.48704352 9 5 C8.01 5.495 8.01 5.495 7 6 C4.5249829 4.88568235 2.32116581 3.41849022 0 2 C0 1.34 0 0.68 0 0 Z " fill="#017FEC" transform="translate(75,268)"/>
<path d="M0 0 C1 3 1 3 -0.4375 6.1875 C-1.2109375 7.5796875 -1.2109375 7.5796875 -2 9 C-2.66 7.68 -3.32 6.36 -4 5 C-2.68 3.35 -1.36 1.7 0 0 Z " fill="#241915" transform="translate(60,78)"/>
<path d="M0 0 C0.33 0 0.66 0 1 0 C0.25 7.75 0.25 7.75 -2 10 C-2.17942163 6.05272412 -2.09350689 3.4019487 0 0 Z " fill="#1651ED" transform="translate(173,130)"/>
<path d="M0 0 C2.97 0.33 5.94 0.66 9 1 C4.82091936 3.08954032 4.19589427 3.16552619 0 2 C0 1.34 0 0.68 0 0 Z " fill="#0374DF" transform="translate(92,55)"/>
</svg>
